<svg version="1.1" xmlns="http://www.w3.org/2000/svg" xmlns:xlink="http://www.w3.org/1999/xlink" width="197.82057" height="194.44611" viewBox="0,0,197.82057,194.44611"><g transform="translate(-141.68075,-68.98618)"><g data-paper-data="{&quot;isPaintingLayer&quot;:true}" fill-rule="nonzero" stroke-linejoin="miter" stroke-miterlimit="10" stroke-dasharray="" stroke-dashoffset="0" style="mix-blend-mode: normal"><path d="M220.08636,152.30636c0,-10.71727 9.2506,-19.40534 20.6618,-19.40534c11.41119,0 20.66179,8.68806 20.66179,19.40534c0,10.71727 -9.2506,19.40533 -20.66179,19.40533c-11.41119,0 -20.6618,-8.68806 -20.6618,-19.40533z" fill="#98a919" stroke="#000000" stroke-width="2" stroke-linecap="butt"/><path d="M251.35826,139.32294l2.23371,-1.11685" fill="none" stroke="#000000" stroke-width="2.5" stroke-linecap="round"/><path d="M257.50095,143.51114l-3.90898,2.2337" fill="none" stroke="#000000" stroke-width="2.5" stroke-linecap="round"/><path d="M244.09872,161.66001l15.91516,-10.33089" fill="none" stroke="#000000" stroke-width="2.5" stroke-linecap="round"/><path d="M236.28074,171.15327l24.57079,-13.12303" fill="none" stroke="#000000" stroke-width="2.5" stroke-linecap="round"/><path d="M229.02118,168.08192l13.40225,-5.02584" fill="none" stroke="#000000" stroke-width="2.5" stroke-linecap="round"/><path d="M225.1122,165.01057l2.51291,-1.67527" fill="none" stroke="#000000" stroke-width="2.5" stroke-linecap="round"/><path d="M219.7813,148.09232c0,-8.7126 7.52028,-15.77556 16.797,-15.77556c9.27672,0 16.79699,7.06296 16.79699,15.77556c0,8.7126 -7.52027,15.77556 -16.79699,15.77556c-9.27672,0 -16.797,-7.06296 -16.797,-15.77556z" fill="#e5ff25" stroke="#000000" stroke-width="2" stroke-linecap="butt"/><path d="M230.13804,209.68473c0,6.16822 -5.18784,11.16854 -11.58736,11.16854c-6.39952,0 -11.58736,-5.00033 -11.58736,-11.16854c0,-6.16822 5.18784,-11.16853 11.58736,-11.16853c6.39952,0 11.58736,5.00032 11.58736,11.16853z" fill="#1dc29b" stroke="#000000" stroke-width="2.5" stroke-linecap="butt"/><path d="M291.00657,221.97012c0,-8.48129 6.56293,-15.35674 14.6587,-15.35674c8.09578,0 14.65871,6.87545 14.65871,15.35674c0,8.48129 -6.56293,15.35674 -14.65871,15.35674c-8.09578,0 -14.6587,-6.87545 -14.6587,-15.35674z" fill="#d46d0c" stroke="#000000" stroke-width="2.5" stroke-linecap="butt"/><path d="M260.72714,103.03022c0,-7.01635 5.62536,-12.70421 12.5646,-12.70421c6.93924,0 12.56461,5.68787 12.56461,12.70421c0,7.01635 -5.62537,12.70422 -12.56461,12.70422c-6.93924,0 -12.5646,-5.68787 -12.5646,-12.70422z" fill="#ff830e" stroke="#000000" stroke-width="2.5" stroke-linecap="butt"/><path d="M293.39511,106.08447c0,3.47906 -8.94449,6.2994 -19.97808,6.2994c-11.03359,0 -19.97807,-2.82033 -19.97807,-6.2994c0,-1.98052 2.89862,-3.74757 7.43118,-4.90237c2.35776,3.05096 6.05299,5.01573 10.20712,5.01573c0.17401,0 0.34722,-0.00345 0.51957,-0.01028c0.98696,0.24194 2.01854,0.37024 3.08009,0.37024c1.34156,0 2.63525,-0.20491 3.8515,-0.58515c3.12264,-0.5909 5.84701,-2.3079 7.73489,-4.71276c4.36043,1.15556 7.13181,2.88802 7.13181,4.82458z" fill="#b95a00" stroke="#000000" stroke-width="2.5" stroke-linecap="butt"/><path d="M192.38165,195.2277c1.5,-2 3.5,-0.5 3.5,-0.5l1.14085,0.88704c1.30962,1.30962 2.61924,2.61924 3.92885,3.92885c0,0 1.76776,1.76777 0,3.53553c-1.76776,1.76776 -3.53554,0 -3.53554,0c-1.30962,-1.30962 -2.61923,-2.61924 -3.92885,-3.92885l-0.60532,-0.42257c0,0 -2,-1.5 -0.5,-3.5z" fill="#000000" stroke="none" stroke-width="0.5" stroke-linecap="butt"/><path d="M184.47724,181.41217c-0.16068,-0.37138 -0.86621,-2.28418 1.14694,-3.29075c2.23607,-1.11803 3.3541,1.11803 3.3541,1.11803l0.4822,1.55457c-0.02187,1.50312 0.24995,3.0284 0.74479,4.4479c0,0 0.79057,2.3717 -1.58114,3.16227c-2.37171,0.79057 -3.16227,-1.58113 -3.16227,-1.58113c-0.56133,-1.74311 -0.90504,-3.57807 -0.98461,-5.4109z" fill="#000000" stroke="none" stroke-width="0.5" stroke-linecap="butt"/><path d="M183.15086,163.26374c-0.33656,-0.6792 -0.54164,-1.7348 0.51397,-2.7904c1.76776,-1.76776 3.53553,0 3.53553,0l0.9505,1.98604c0,1.89167 0,3.78334 0,5.67501c0,0 0,2.5 -2.5,2.5c-2.5,0 -2.5,-2.5 -2.5,-2.5c0,-1.62355 0,-3.2471 0,-4.87064z" fill="#000000" stroke="none" stroke-width="0.5" stroke-linecap="butt"/><path d="M187.83356,141.84299c2.5,0 2.5,2.5 2.5,2.5l-0.07464,1.26115c-0.21827,0.87308 -0.43654,1.74615 -0.65481,2.61923c0,0 -0.60634,2.42536 -3.0317,1.81902c-2.42535,-0.60634 -1.81902,-3.0317 -1.81902,-3.0317c0.21827,-0.87308 0.43654,-1.74616 0.65481,-2.61924l-0.07465,-0.04847c0,0 0,-2.5 2.5,-2.5z" fill="#000000" stroke="none" stroke-width="0.5" stroke-linecap="butt"/><path d="M202.00236,124.431c2.34948,0.85436 1.49513,3.20384 1.49513,3.20384l-1.07535,2.82702c-0.67495,0.78164 -1.3499,1.56328 -2.02484,2.34492c0,0 -1.66091,1.86853 -3.52944,0.20762c-1.86853,-1.66091 -0.20762,-3.52944 -0.20762,-3.52944c0.48916,-0.52798 0.97831,-1.05595 1.46747,-1.58393l0.67081,-1.97491c0,0 0.85436,-2.34949 3.20384,-1.49513z" fill="#000000" stroke="none" stroke-width="0.5" stroke-linecap="butt"/><path d="M212.7163,114.45835c1.79078,0 2.29881,1.28276 2.44293,2.01056c1.11086,2.05841 -0.93841,3.28798 -0.93841,3.28798l-2.45405,0.28903c-0.18328,0.04341 -0.37436,0.06664 -0.57076,0.06722l-2.45898,0.28961c0.17916,-0.3937 0.35832,-0.78742 0.53748,-1.18112c-0.36575,-0.43475 -0.58608,-0.99588 -0.58608,-1.60848c0,-1.29628 0.98659,-2.36214 2.24985,-2.48765c0.37029,-0.37984 0.93049,-0.66716 1.77803,-0.66716z" fill="#000000" stroke="none" stroke-width="0.5" stroke-linecap="butt"/><path d="M220.47497,111.71988c0,-1.38071 1.11929,-2.5 2.5,-2.5c1.38071,0 2.5,1.11929 2.5,2.5c0,1.38071 -1.11929,2.5 -2.5,2.5c-1.38071,0 -2.5,-1.11929 -2.5,-2.5z" fill="#000000" stroke="none" stroke-width="0.5" stroke-linecap="butt"/><path d="M231.07883,110.62853c0,-0.82842 0.67157,-1.5 1.5,-1.5c0.82843,0 1.5,0.67158 1.5,1.5c0,0.82842 -0.67157,1.5 -1.5,1.5c-0.82843,0 -1.5,-0.67158 -1.5,-1.5z" fill="#000000" stroke="none" stroke-width="0.5" stroke-linecap="butt"/><path d="M239.68654,112.37469c0,-0.41421 0.33578,-0.75 0.75,-0.75c0.41422,0 0.75,0.33579 0.75,0.75c0,0.41421 -0.33578,0.75 -0.75,0.75c-0.41422,0 -0.75,-0.33579 -0.75,-0.75z" fill="#000000" stroke="none" stroke-width="0.5" stroke-linecap="butt"/><path d="M258.04311,221.29048c0,-0.41422 0.33578,-0.75 0.75,-0.75c0.41422,0 0.75,0.33578 0.75,0.75c0,0.41422 -0.33578,0.75 -0.75,0.75c-0.41422,0 -0.75,-0.33578 -0.75,-0.75z" fill="#000000" stroke="none" stroke-width="0.5" stroke-linecap="butt"/><path d="M169.54431,185.67297c0,-0.41422 0.33578,-0.75 0.75,-0.75c0.41422,0 0.75,0.33578 0.75,0.75c0,0.41422 -0.33578,0.75 -0.75,0.75c-0.41422,0 -0.75,-0.33578 -0.75,-0.75z" fill="#000000" stroke="none" stroke-width="0.5" stroke-linecap="butt"/><path d="M169.73085,194.40375c0,-0.55229 0.44771,-1 1,-1c0.55229,0 1,0.44771 1,1c0,0.55229 -0.44771,1 -1,1c-0.55229,0 -1,-0.44771 -1,-1z" fill="#000000" stroke="none" stroke-width="0.5" stroke-linecap="butt"/><path d="M262.15576,218.38777c0,-0.55229 0.44772,-1 1,-1c0.55228,0 1,0.44771 1,1c0,0.55229 -0.44772,1 -1,1c-0.55228,0 -1,-0.44771 -1,-1z" fill="#000000" stroke="none" stroke-width="0.5" stroke-linecap="butt"/><path d="M174.75656,205.23197c-1.06591,0 -1.22288,-0.90894 -1.246,-1.17666c-1.58978,-1.69726 -1.76272,-2.71587 -2.16968,-5.10631c0,0 -0.2055,-1.23299 1.02749,-1.43849c1.23299,-0.2055 1.43849,1.02749 1.43849,1.02749c0.36493,2.2305 0.18181,2.47605 1.83359,4.12355l0.36611,1.32042c0,0 0,1.25 -1.25,1.25z" fill="#000000" stroke="none" stroke-width="0.5" stroke-linecap="butt"/><path d="M274.13849,213.33986c0.46424,1.1606 -0.69635,1.62484 -0.69635,1.62484l-0.91246,0.34781c-1.46293,0.87768 -2.77158,1.74521 -4.39496,2.29669c0,0 -1.18586,0.39529 -1.58114,-0.79057c-0.39529,-1.18586 0.79057,-1.58114 0.79057,-1.58114c1.44815,-0.47132 2.60028,-1.28923 3.89929,-2.0687l1.27023,-0.52527c0,0 1.16059,-0.46424 1.62483,0.69635z" fill="#000000" stroke="none" stroke-width="0.5" stroke-linecap="butt"/><path d="M294.21068,118.38111c-2,0 -2,-2 -2,-2l0.17237,-0.71561c-0.29102,-0.65481 -0.58205,-1.30962 -0.87308,-1.96443c0,0 -0.81228,-1.82762 1.01535,-2.6399c1.82763,-0.81227 2.6399,1.01535 2.6399,1.01535c0.29102,0.65481 0.58205,1.30961 0.87308,1.96442l0.17238,2.34017c0,0 0,2 -2,2z" fill="#000000" stroke="none" stroke-width="0.5" stroke-linecap="butt"/><path d="M302.06571,128.15562c-1.95238,0.43386 -2.38623,-1.51851 -2.38623,-1.51851l-0.3689,-1.72913c-0.33182,-0.65247 -0.66365,-1.30495 -0.99547,-1.95743c0,0 -0.89443,-1.78886 0.89443,-2.68328c1.78886,-0.89442 2.68328,0.89443 2.68328,0.89443c0.39574,0.80266 0.79149,1.60531 1.18723,2.40797l0.50418,2.19972c0,0 0.43387,1.95238 -1.51851,2.38624z" fill="#000000" stroke="none" stroke-width="0.5" stroke-linecap="butt"/><path d="M307.15316,143.89855c-1.9799,0.28285 -2.26274,-1.69705 -2.26274,-1.69705l-0.22845,-1.61173c-0.09024,-1.17647 -0.47184,-2.35653 -1.06786,-3.37484c0,0 -0.97128,-1.74832 0.77703,-2.7196c1.74831,-0.97128 2.7196,0.77703 2.7196,0.77703c0.81148,1.51587 1.35309,3.21147 1.55138,4.9194l0.20809,1.44406c0,0 0.28284,1.97989 -1.69706,2.26274z" fill="#000000" stroke="none" stroke-width="0.5" stroke-linecap="butt"/><path d="M307.52513,160.72542c-2,0 -2,-2 -2,-2l0.04762,-1.52521c0.30363,-1.35246 0.49238,-2.73194 0.6154,-4.11261c0,0 0.18108,-1.99178 2.17286,-1.81071c1.99178,0.18107 1.81071,2.17286 1.81071,2.17286c-0.14344,1.55006 -0.35944,3.09792 -0.69422,4.61818l0.04763,0.65749c0,0 0,2 -2,2z" fill="#000000" stroke="none" stroke-width="0.5" stroke-linecap="butt"/><path d="M284.37679,200.62873c0.08048,-0.54389 0.43291,-1.73474 1.97618,-1.73474c2,0 2,2 2,2l-0.17238,1.03055c-0.99935,2.21659 -2.31206,3.95502 -3.65583,5.97214c0,0 -1.1094,1.6641 -2.7735,0.5547c-1.6641,-1.1094 -0.5547,-2.7735 -0.5547,-2.7735c1.14782,-1.72054 2.3165,-3.20041 3.18023,-5.04914z" fill="#000000" stroke="none" stroke-width="0.5" stroke-linecap="butt"/><path d="M300.22316,179.29496c1.73649,0.99228 0.74421,2.72877 0.74421,2.72877l-0.78195,1.34788c-0.56655,1.26793 -1.04329,2.57861 -1.43986,3.90954c0,0 -0.57469,1.91565 -2.49035,1.34096c-1.91566,-0.57469 -1.34096,-2.49035 -1.34096,-2.49035c0.45008,-1.49122 0.9858,-2.96018 1.61591,-4.38471l0.96422,-1.70788c0,0 0.99228,-1.73649 2.72877,-0.74421z" fill="#000000" stroke="none" stroke-width="0.5" stroke-linecap="butt"/><path d="M304.23182,165.72693c1.99007,0.199 1.79107,2.18908 1.79107,2.18908l-0.21827,2.18269c-0.17973,1.63104 -0.60279,3.25415 -1.2538,4.76039c0,0 -0.81227,1.82762 -2.6399,1.01534c-1.82763,-0.81227 -1.01534,-2.6399 -1.01534,-2.6399c0.50999,-1.10605 0.82407,-2.32041 0.9289,-3.53386l0.21827,-2.18269c0,0 0.19901,-1.99007 2.18908,-1.79107z" fill="#000000" stroke="none" stroke-width="0.5" stroke-linecap="butt"/><path d="M186.73997,222.7733c-1.1094,1.6641 -2.7735,0.5547 -2.7735,0.5547l-1.06392,-0.79906c-1.34491,-1.57148 -2.79957,-3.01376 -4.14712,-4.58366c0,0 -1.30158,-1.51851 0.21693,-2.8201c1.51852,-1.30158 2.82009,0.21693 2.82009,0.21693c1.34491,1.57148 2.79957,3.01375 4.14712,4.58366l0.2457,0.07402c0,0 1.6641,1.10941 0.5547,2.77351z" fill="#000000" stroke="none" stroke-width="0.5" stroke-linecap="butt"/><path d="M200.0228,237.92045c-1.41422,1.41422 -2.82843,0 -2.82843,0l-1.47257,-1.47466c-1.00897,-0.86445 -2.05183,-1.69002 -3.11514,-2.48668c0,0 -1.6,-1.2 -0.4,-2.8c1.2,-1.6 2.8,-0.4 2.8,-0.4c1.17284,0.88049 2.31962,1.79715 3.43294,2.75179l1.5832,1.58112c0,0 1.41422,1.41421 0,2.82843z" fill="#000000" stroke="none" stroke-width="0.5" stroke-linecap="butt"/><path d="M226.87402,252.84625c-1.6,1.2 -2.8,-0.4 -2.8,-0.4l0.94519,-0.07308c-2.68861,-0.04509 -4.37024,-0.8571 -6.90452,-1.61223c0,0 -1.91565,-0.57469 -1.34096,-2.49035c0.57469,-1.91565 2.49035,-1.34096 2.49035,-1.34096c2.10482,0.63528 3.57241,1.49734 5.75512,1.44354l2.25481,1.67308c0,0 1.2,1.6 -0.4,2.8z" fill="#000000" stroke="none" stroke-width="0.5" stroke-linecap="butt"/><path d="M251.66358,252.70957c0.28285,1.9799 -1.69706,2.26274 -1.69706,2.26274l-1.81073,0.23837c-2.18269,0 -4.36539,0 -6.54809,0c0,0 -2,0 -2,-2c0,-2 2,-2 2,-2c2.18269,0 4.36539,0 6.54809,0l1.24505,-0.19817c0,0 1.9799,-0.28284 2.26274,1.69706z" fill="#000000" stroke="none" stroke-width="0.5" stroke-linecap="butt"/><path d="M276.24551,247.99456c0.63245,1.89737 -1.26491,2.52983 -1.26491,2.52983l-0.85341,0.27327c-2.29942,0.50698 -4.4092,0.69988 -6.76368,0.70244c0,0 -2,0 -2,-2c0,-2 2,-2 2,-2c2.07122,0.00247 3.8757,-0.15427 5.89596,-0.60718l0.45621,-0.16326c0,0 1.89737,-0.63246 2.52982,1.26491z" fill="#000000" stroke="none" stroke-width="0.5" stroke-linecap="butt"/><path d="M295.00171,238.56856c1.1094,1.6641 -0.55471,2.77351 -0.55471,2.77351l-0.79292,0.52075c-2.47526,1.3724 -4.92696,2.59137 -7.33246,4.09481c0,0 -1.69599,1.06 -2.75599,-0.636c-1.06,-1.696 0.636,-2.75599 0.636,-2.75599c2.46245,-1.53904 4.98055,-2.79124 7.50987,-4.19944l0.5167,-0.35233c0,0 1.66411,-1.1094 2.77351,0.5547z" fill="#000000" stroke="none" stroke-width="0.5" stroke-linecap="butt"/><path d="M177.48812,252.89278c-0.2135,-0.04668 -0.43006,-0.13089 -0.63745,-0.26868c-0.31958,-0.17058 -0.60901,-0.4386 -0.72956,-0.85975c-0.17593,-0.4084 -0.10751,-0.75879 0.05085,-1.03937c0.19176,-0.46332 0.60388,-0.71458 0.99448,-0.85084c1.36274,-0.6842 2.61526,-1.34488 3.75561,-2.25727l0.16769,-1.34572c0.08959,-0.81987 0.94735,-1.46294 1.99227,-1.46294c0.76626,0 1.43187,0.34581 1.76772,0.85357l1.07195,1.54841l-0.08972,0.04c0.09876,0.10837 0.19161,0.22044 0.27746,0.33686c1.02781,1.39381 -1.21558,2.75139 0.68318,2.32586v-0.02505h2.18269v0c1.10457,0 2,0.71858 2,1.60499c0,0.40211 -0.18427,0.76969 -0.48874,1.05131l-1.30236,1.21932l-0.07758,-0.05337c-0.10065,0.11766 -0.20845,0.23152 -0.32495,0.34075c-0.84861,0.79567 -2.29443,0.09455 -2.83674,1.16459c-0.23174,0.45727 -0.38179,0.97057 -0.49248,1.50806c0.43072,1.2111 0.45825,2.4403 -0.17418,3.5897c-0.01351,0.02454 -0.02724,0.04899 -0.04118,0.07334l0.02436,0.00391l-0.42927,1.72244c-0.16789,0.75016 -0.98533,1.31938 -1.96843,1.31938c-1.10457,0 -2,-0.71858 -2,-1.60499v-1.7516h0.10095l-0.08901,-0.17514c0.07811,-0.28913 0.14296,-0.60586 0.20136,-0.94035c0.0171,-0.27152 0.08289,-0.55597 0.13231,-0.83877c0.01434,-0.09753 0.02862,-0.19578 0.04296,-0.29456c0.02863,-0.2663 0.02188,-0.52652 -0.07629,-0.76812c-0.69721,-1.71582 -2.06873,-3.00442 -3.68791,-4.16599zM182.12848,250.94643c-0.25401,0.17434 -0.51395,0.34306 -0.78263,0.50866c0.56059,0.476 0.68663,1.70113 1.21362,2.25978c0.1339,-0.1362 2.89841,-0.97261 3.0523,-1.10377c-0.0504,-0.02865 -1.62725,-1.11055 -1.67466,-1.14399c-0.57935,-0.40865 -1.62111,0.07645 -1.80863,-0.52068z" fill="#000000" stroke="none" stroke-width="0.5" stroke-linecap="butt"/><path d="M183.96054,251.42294c0.0474,0.03344 1.65039,1.16602 1.70079,1.19467c-0.15389,0.13116 -2.99563,1.0027 -3.12954,1.1389c-0.52698,-0.55865 -0.67162,-1.84443 -1.23221,-2.32042c0.26869,-0.1656 0.53997,-0.35112 0.79398,-0.52546c0.18751,0.59713 1.28762,0.10367 1.86698,0.51231z" data-paper-data="{&quot;noHover&quot;:false,&quot;origItem&quot;:[&quot;Path&quot;,{&quot;applyMatrix&quot;:true,&quot;segments&quot;:[[[182.12848,250.94643],[0.18751,0.59713],[-0.25401,0.17434]],[[181.34585,251.45509],[0.26869,-0.1656],[0.56059,0.476]],[[182.55946,253.71487],[-0.52698,-0.55865],[0.1339,-0.1362]],[[185.61176,252.6111],[-0.15389,0.13116],[-0.0504,-0.02865]],[[183.93711,251.46711],[0.0474,0.03344],[-0.57935,-0.40865]]],&quot;closed&quot;:true}]}" fill="#ffffff" stroke="none" stroke-width="0.5" stroke-linecap="butt"/><path d="M313.89418,188.23355c-0.18903,-0.10969 -0.36948,-0.25605 -0.52484,-0.45062c-0.25216,-0.26008 -0.44585,-0.60374 -0.43192,-1.04158c-0.04271,-0.44263 0.12952,-0.75534 0.36604,-0.9741c0.32417,-0.38255 0.79337,-0.49584 1.20692,-0.50622c1.50664,-0.23502 2.90114,-0.48133 4.26576,-1.00158l0.57092,-1.23009c0.33585,-0.75328 1.34911,-1.10344 2.34404,-0.78412c0.7296,0.23416 1.25768,0.76684 1.4223,1.35294l0.54747,1.80193l-0.09764,0.01066c0.06091,0.13337 0.11508,0.26844 0.16124,0.40553c0.55268,1.64123 -1.99824,2.24829 -0.06029,2.42338l0.00765,-0.02385l2.07828,0.66703v0c1.05173,0.33756 1.68473,1.2954 1.41384,2.13941c-0.12288,0.38288 -0.41067,0.67655 -0.78664,0.85165l-1.61268,0.76299l-0.05757,-0.07452c-0.1318,0.08127 -0.26924,0.15674 -0.41354,0.22514c-1.05117,0.49827 -2.21356,-0.61115 -3.05692,0.24197c-0.3604,0.36458 -0.66012,0.80747 -0.92978,1.28541c0.04001,1.28479 -0.30943,2.46361 -1.26286,3.36474c-0.02036,0.01925 -0.0409,0.03832 -0.06161,0.05724l0.02199,0.01117l-0.93511,1.50886c-0.38911,0.66296 -1.3414,0.95515 -2.27747,0.65471c-1.05173,-0.33756 -1.68472,-1.2954 -1.41384,-2.1394l0.53528,-1.66781l0.09612,0.03085l-0.03123,-0.19396c0.16273,-0.25142 0.32127,-0.5332 0.47909,-0.83383c0.09926,-0.25331 0.24883,-0.50404 0.38231,-0.75821c0.04345,-0.08847 0.08708,-0.17767 0.13092,-0.26735c0.10864,-0.24481 0.18173,-0.49464 0.16209,-0.75468c-0.1395,-1.8468 -1.05162,-3.49289 -2.23836,-5.0937zM318.90735,187.7984c-0.29514,0.08838 -0.5942,0.16958 -0.90064,0.24515c0.38831,0.62454 0.13392,1.82959 0.46497,2.52256c0.16912,-0.08876 3.05698,-0.04034 3.24359,-0.11819c-0.03923,-0.04268 -1.21002,-1.55471 -1.24494,-1.60104c-0.42676,-0.56615 -1.56692,-0.42262 -1.56298,-1.04848z" fill="#000000" stroke="none" stroke-width="0.5" stroke-linecap="butt"/><path d="M320.51413,188.82278c0.03492,0.04632 1.2032,1.61065 1.24243,1.65333c-0.18661,0.07785 -3.15119,0.03652 -3.32031,0.12529c-0.33105,-0.69297 -0.08384,-1.95947 -0.47215,-2.58401c0.30644,-0.07557 0.61974,-0.17178 0.91488,-0.26016c-0.00394,0.62587 1.2084,0.4994 1.63516,1.06555z" data-paper-data="{&quot;noHover&quot;:false,&quot;origItem&quot;:[&quot;Path&quot;,{&quot;applyMatrix&quot;:true,&quot;segments&quot;:[[[318.90735,187.7984],[-0.00394,0.62587],[-0.29514,0.08838]],[[318.00671,188.04355],[0.30644,-0.07557],[0.38831,0.62454]],[[318.47168,190.56611],[-0.33105,-0.69297],[0.16912,-0.08876]],[[321.71527,190.44792],[-0.18661,0.07785],[-0.03923,-0.04268]],[[320.47033,188.84689],[0.03492,0.04632],[-0.42676,-0.56615]]],&quot;closed&quot;:true}]}" fill="#ffffff" stroke="none" stroke-width="0.5" stroke-linecap="butt"/><path d="M165.70604,130.23176c-0.19965,0.08891 -0.42398,0.14938 -0.67269,0.16127c-0.35851,0.05195 -0.75048,0.00754 -1.09712,-0.26029c-0.38371,-0.22475 -0.5362,-0.54754 -0.57489,-0.86738c-0.12007,-0.48684 0.06305,-0.93345 0.29696,-1.27465c0.69234,-1.35863 1.30983,-2.63299 1.68783,-4.04365l-0.6623,-1.1834c-0.41363,-0.71353 -0.10369,-1.73981 0.73804,-2.35895c0.61726,-0.45403 1.35834,-0.56986 1.92974,-0.35984l1.78099,0.61217l-0.04857,0.08537c0.14377,0.02878 0.28496,0.06404 0.4231,0.10695c1.65382,0.51378 0.65108,2.93664 1.92848,1.4688l-0.01485,-0.02018l1.75827,-1.29331v0c0.88978,-0.65449 2.03688,-0.60621 2.5621,0.10783c0.23827,0.32392 0.30762,0.72921 0.22922,1.13648l-0.32663,1.75391l-0.09412,0.00298c-0.01137,0.15442 -0.03074,0.31002 -0.05987,0.46703c-0.21214,1.14378 -1.79226,1.43568 -1.59507,2.61898c0.08426,0.50567 0.26754,1.00806 0.49685,1.50662c1.06458,0.72038 1.81509,1.69427 1.98669,2.99489c0.00367,0.02777 0.00709,0.0556 0.01029,0.08347l0.02194,-0.01128l0.6748,1.64187c0.30924,0.70377 -0.01196,1.64667 -0.80389,2.22918c-0.88978,0.65449 -2.03687,0.6062 -2.56209,-0.10784l-1.03788,-1.411l0.08132,-0.05981l-0.17547,-0.08835c-0.10839,-0.27919 -0.24384,-0.57276 -0.39499,-0.8768c-0.14711,-0.22886 -0.26265,-0.49698 -0.39041,-0.75407c-0.04623,-0.08705 -0.09296,-0.17467 -0.13994,-0.26274c-0.13473,-0.23148 -0.29435,-0.4371 -0.51659,-0.57355c-1.57831,-0.96905 -3.44668,-1.19442 -5.43926,-1.17071zM168.29082,125.91433c-0.10131,0.29095 -0.21075,0.58088 -0.32906,0.87348c0.73362,0.05127 1.56109,0.9635 2.31662,1.10127c0.02716,-0.18906 1.7585,-2.50089 1.80476,-2.69772c-0.05757,0.00678 -1.96886,0.06959 -2.02686,0.07074c-0.70883,0.0141 -1.26058,1.02214 -1.76546,0.65223z" fill="#000000" stroke="none" stroke-width="0.5" stroke-linecap="butt"/><path d="M170.05759,125.21211c0.058,-0.00115 2.00981,-0.04136 2.06738,-0.04814c-0.04626,0.19683 -1.81011,2.58517 -1.83727,2.77423c-0.75553,-0.13777 -1.64196,-1.09316 -2.37558,-1.14443c0.11831,-0.2926 0.23037,-0.60549 0.33168,-0.89644c0.50487,0.36991 1.10497,-0.67112 1.8138,-0.68522z" data-paper-data="{&quot;noHover&quot;:false,&quot;origItem&quot;:[&quot;Path&quot;,{&quot;applyMatrix&quot;:true,&quot;segments&quot;:[[[168.29082,125.91433],[0.50487,0.36991],[-0.10131,0.29095]],[[167.96176,126.78781],[0.11831,-0.2926],[0.73362,0.05127]],[[170.27838,127.88908],[-0.75553,-0.13777],[0.02716,-0.18906]],[[172.08314,125.19136],[-0.04626,0.19683],[-0.05757,0.00678]],[[170.05627,125.2621],[0.058,-0.00115],[-0.70883,0.0141]]],&quot;closed&quot;:true}]}" fill="#ffffff" stroke="none" stroke-width="0.5" stroke-linecap="butt"/><path d="M247.74409,75.29166c-0.19207,-0.10428 -0.37661,-0.24545 -0.53743,-0.43552c-0.25946,-0.2528 -0.46283,-0.59082 -0.46136,-1.02887c-0.05527,-0.44124 0.10799,-0.75872 0.3382,-0.98412c0.31316,-0.39162 0.77895,-0.5182 1.19204,-0.54033c1.49936,-0.27777 2.88628,-0.56362 4.23557,-1.12245l0.53571,-1.24582c0.3143,-0.76252 1.31719,-1.14136 2.3208,-0.85045c0.73596,0.21332 1.27898,0.73077 1.46019,1.31196l0.59848,1.78563l-0.0973,0.01344c0.06468,0.13158 0.12266,0.26506 0.1727,0.40078c0.59912,1.62485 -1.93351,2.30419 0.00864,2.42411l0.00697,-0.02407l2.0964,0.60768v0c1.0609,0.30751 1.72088,1.24698 1.4741,2.09834c-0.11195,0.38621 -0.39128,0.68796 -0.76212,0.87367l-1.59033,0.80854l-0.05966,-0.07286c-0.12943,0.08499 -0.26468,0.16433 -0.40697,0.23681c-1.03658,0.52795 -2.23005,-0.54797 -3.04881,0.32879c-0.34989,0.37467 -0.6369,0.8259 -0.89285,1.31132c0.07652,1.28314 -0.23926,2.47141 -1.16669,3.39929c-0.0198,0.01981 -0.03979,0.03947 -0.05996,0.05897l0.0223,0.01054l-0.89184,1.53484c-0.3701,0.67375 -1.3137,0.9929 -2.25793,0.7192c-1.0609,-0.30751 -1.72086,-1.24697 -1.47408,-2.09834l0.48765,-1.68235l0.09695,0.02811l-0.03672,-0.19299c0.15552,-0.25594 0.30597,-0.54212 0.45519,-0.84712c0.09202,-0.25603 0.23441,-0.51091 0.3606,-0.76877c0.04092,-0.08967 0.08199,-0.18008 0.12327,-0.27096c0.10164,-0.2478 0.1676,-0.49961 0.14057,-0.75899c-0.19196,-1.84208 -1.1505,-3.46158 -2.38227,-5.02801zM252.74286,74.71416c-0.29251,0.09673 -0.58914,0.1864 -0.8933,0.27065c0.40591,0.61325 0.18588,1.82505 0.5365,2.50832c0.16653,-0.09354 3.0546,-0.12723 3.23892,-0.21036c-0.04043,-0.04154 -1.25373,-1.51968 -1.28996,-1.56499c-0.44268,-0.55378 -1.5783,-0.37789 -1.59216,-1.00362z" fill="#000000" stroke="none" stroke-width="0.5" stroke-linecap="butt"/><path d="M254.37703,75.69067c0.03623,0.04531 1.24992,1.57706 1.29035,1.6186c-0.18432,0.08312 -3.14965,0.12618 -3.31618,0.21972c-0.35062,-0.68328 -0.13874,-1.95642 -0.54465,-2.56966c0.30417,-0.08425 0.61471,-0.18909 0.90722,-0.28582c0.01386,0.62573 1.22059,0.46339 1.66327,1.01717z" data-paper-data="{&quot;noHover&quot;:false,&quot;origItem&quot;:[&quot;Path&quot;,{&quot;applyMatrix&quot;:true,&quot;segments&quot;:[[[252.74286,74.71416],[0.01386,0.62573],[-0.29251,0.09673]],[[251.84956,74.98482],[0.30417,-0.08425],[0.40591,0.61325]],[[252.38606,77.49314],[-0.35062,-0.68328],[0.16653,-0.09354]],[[255.62498,77.28278],[-0.18432,0.08312],[-0.04043,-0.04154]],[[254.33502,75.71779],[0.03623,0.04531],[-0.44268,-0.55378]]],&quot;closed&quot;:true}]}" fill="#ffffff" stroke="none" stroke-width="0.5" stroke-linecap="butt"/><g fill="#000000" stroke-linecap="butt"><text transform="translate(155.11078,179.9576) rotate(-34.77469) scale(0.5,0.5)" font-size="40" xml:space="preserve" fill="#000000" fill-rule="nonzero" stroke="#000000" stroke-width="8" stroke-linecap="butt" stroke-linejoin="miter" stroke-miterlimit="10" stroke-dasharray="" stroke-dashoffset="0" font-family="Handwriting" font-weight="normal" text-anchor="start" style="mix-blend-mode: normal"><tspan x="0" dy="0">U</tspan></text><text transform="translate(174.95312,168.80564) rotate(-34.77469) scale(0.5,0.5)" font-size="40" xml:space="preserve" fill="#000000" fill-rule="nonzero" stroke="#000000" stroke-width="8" stroke-linecap="butt" stroke-linejoin="miter" stroke-miterlimit="10" stroke-dasharray="" stroke-dashoffset="0" font-family="Handwriting" font-weight="normal" text-anchor="start" style="mix-blend-mode: normal"><tspan x="0" dy="0">L</tspan></text><text transform="translate(188.01342,156.66524) rotate(-19.76243) scale(0.5,0.5)" font-size="40" xml:space="preserve" fill="#000000" fill-rule="nonzero" stroke="#000000" stroke-width="8" stroke-linecap="butt" stroke-linejoin="miter" stroke-miterlimit="10" stroke-dasharray="" stroke-dashoffset="0" font-family="Handwriting" font-weight="normal" text-anchor="start" style="mix-blend-mode: normal"><tspan x="0" dy="0">T</tspan></text><text transform="translate(203.54684,147.56387) rotate(-7.9426) scale(0.5,0.5)" font-size="40" xml:space="preserve" fill="#000000" fill-rule="nonzero" stroke="#000000" stroke-width="8" stroke-linecap="butt" stroke-linejoin="miter" stroke-miterlimit="10" stroke-dasharray="" stroke-dashoffset="0" font-family="Handwriting" font-weight="normal" text-anchor="start" style="mix-blend-mode: normal"><tspan x="0" dy="0">R</tspan></text><text transform="translate(223.74059,142.01574) rotate(-5.27986) scale(0.5,0.5)" font-size="40" xml:space="preserve" fill="#000000" fill-rule="nonzero" stroke="#000000" stroke-width="8" stroke-linecap="butt" stroke-linejoin="miter" stroke-miterlimit="10" stroke-dasharray="" stroke-dashoffset="0" font-family="Handwriting" font-weight="normal" text-anchor="start" style="mix-blend-mode: normal"><tspan x="0" dy="0">A</tspan></text><path d="M247.5427,132.33002c0,2 -2,2 -2,2c-1.45513,0 -3.12853,0 -4.58366,0c0,0 -2,0 -2,-2c0,-2 2,-2 2,-2c1.45513,0 2.91026,0 4.36539,0h0.21827c0,0 2,0 2,2z" stroke="none" stroke-width="0.5"/><text transform="translate(247.42337,139.71046) rotate(10.57492) scale(0.5,0.5)" font-size="40" xml:space="preserve" fill="#000000" fill-rule="nonzero" stroke="#000000" stroke-width="8" stroke-linecap="butt" stroke-linejoin="miter" stroke-miterlimit="10" stroke-dasharray="" stroke-dashoffset="0" font-family="Handwriting" font-weight="normal" text-anchor="start" style="mix-blend-mode: normal"><tspan x="0" dy="0">L</tspan></text><text transform="translate(262.02724,144.05565) rotate(10.57492) scale(0.5,0.5)" font-size="40" xml:space="preserve" fill="#000000" fill-rule="nonzero" stroke="#000000" stroke-width="8" stroke-linecap="butt" stroke-linejoin="miter" stroke-miterlimit="10" stroke-dasharray="" stroke-dashoffset="0" font-family="Handwriting" font-weight="normal" text-anchor="start" style="mix-blend-mode: normal"><tspan x="0" dy="0">E</tspan></text><text transform="translate(279.87894,149.02212) rotate(16.31168) scale(0.5,0.5)" font-size="40" xml:space="preserve" fill="#000000" fill-rule="nonzero" stroke="#000000" stroke-width="8" stroke-linecap="butt" stroke-linejoin="miter" stroke-miterlimit="10" stroke-dasharray="" stroke-dashoffset="0" font-family="Handwriting" font-weight="normal" text-anchor="start" style="mix-blend-mode: normal"><tspan x="0" dy="0">A</tspan></text><text transform="translate(296.41365,155.26493) rotate(21.5235) scale(0.5,0.5)" font-size="40" xml:space="preserve" fill="#000000" fill-rule="nonzero" stroke="#000000" stroke-width="8" stroke-linecap="butt" stroke-linejoin="miter" stroke-miterlimit="10" stroke-dasharray="" stroke-dashoffset="0" font-family="Handwriting" font-weight="normal" text-anchor="start" style="mix-blend-mode: normal"><tspan x="0" dy="0">R</tspan></text><text transform="translate(312.44285,163.29253) rotate(38.60281) scale(0.49999,0.49999)" font-size="40" xml:space="preserve" fill="#000000" fill-rule="nonzero" stroke="#000000" stroke-width="8" stroke-linecap="butt" stroke-linejoin="miter" stroke-miterlimit="10" stroke-dasharray="" stroke-dashoffset="0" font-family="Handwriting" font-weight="normal" text-anchor="start" style="mix-blend-mode: normal"><tspan x="0" dy="0">N</tspan></text></g><path d="M311.81615,216.15046c-0.48507,1.94029 -2.42536,1.45521 -2.42536,1.45521l-1.37171,-0.37394c-2.6095,-0.18972 -4.97709,-0.6817 -7.50935,-1.34648c0,0 -1.93415,-0.50899 -1.42516,-2.44314c0.50899,-1.93415 2.44314,-1.42516 2.44314,-1.42516c2.29721,0.60607 4.41016,1.05927 6.77636,1.22495l2.05686,0.4832c0,0 1.94029,0.48507 1.45521,2.42536z" fill="#ab580a" stroke="none" stroke-width="0.5" stroke-linecap="butt"/><path d="M314.59015,225.09396c0,2 -2,2 -2,2l-0.28535,-0.00508c-5.49025,-0.40063 -10.12399,-2.12092 -15.17172,-4.13796c0,0 -1.85695,-0.74278 -1.11417,-2.59973c0.74278,-1.85695 2.59973,-1.11417 2.59973,-1.11417c4.65997,1.86579 8.89324,3.5081 13.97114,3.86204l0.00036,-0.00508c0,0 2,0 2,2z" fill="#ab580a" stroke="none" stroke-width="0.5" stroke-linecap="butt"/><path d="M307.87587,231.17118c0,2 -2,2 -2,2l-0.83516,-0.07695c-2.43368,-0.69553 -4.51581,-1.36428 -6.72855,-2.61513c0,0 -1.73649,-0.99228 -0.74421,-2.72876c0.99228,-1.73649 2.72876,-0.74421 2.72876,-0.74421c1.92051,1.11174 3.71655,1.63466 5.84288,2.24201l-0.26373,-0.07695c0,0 2,0 2,2z" fill="#ab580a" stroke="none" stroke-width="0.5" stroke-linecap="butt"/><path d="M224.58937,206.29114c0,2 -2,2 -2,2h-0.71429c-2.41789,-0.00761 -4.63048,-0.39645 -6.99049,-0.90154c0,0 -1.9556,-0.41906 -1.53655,-2.37466c0.41906,-1.9556 2.37466,-1.53655 2.37466,-1.53655c2.08325,0.44699 4.01734,0.82068 6.15237,0.81275h0.71429c0,0 2,0 2,2z" fill="#169477" stroke="none" stroke-width="0.5" stroke-linecap="butt"/><path d="M223.99469,213.30954c-0.30411,1.97674 -2.28086,1.67263 -2.28086,1.67263l-1.94526,-0.3013c-2.14671,-0.42938 -4.27304,-0.8329 -6.44352,-1.12156c0,0 -1.98246,-0.26433 -1.71813,-2.24678c0.26433,-1.98246 2.24678,-1.71813 2.24678,-1.71813c2.25592,0.30151 4.46795,0.71791 6.69933,1.16415l1.76902,0.27013c0,0 1.97674,0.30411 1.67263,2.28086z" fill="#169477" stroke="none" stroke-width="0.5" stroke-linecap="butt"/></g></g></svg>